<svg width="30" height="30" viewBox="0 0 30 30" fill="none" xmlns="http://www.w3.org/2000/svg">
<path d="M26.25 28.4375H3.75C3.2375 28.4375 2.8125 28.0125 2.8125 27.5C2.8125 26.9875 3.2375 26.5625 3.75 26.5625H26.25C26.7625 26.5625 27.1875 26.9875 27.1875 27.5C27.1875 28.0125 26.7625 28.4375 26.25 28.4375Z" fill="#008D84"/>
<path d="M6.99997 24.6871H5C3.8 24.6871 2.8125 23.6996 2.8125 22.4996V11.7246C2.8125 10.5246 3.8 9.53711 5 9.53711H6.99997C8.19997 9.53711 9.18747 10.5246 9.18747 11.7246V22.4996C9.18747 23.6996 8.19997 24.6871 6.99997 24.6871ZM5 11.3996C4.825 11.3996 4.6875 11.5371 4.6875 11.7121V22.4996C4.6875 22.6746 4.825 22.8121 5 22.8121H6.99997C7.17497 22.8121 7.31247 22.6746 7.31247 22.4996V11.7246C7.31247 11.5496 7.17497 11.4121 6.99997 11.4121H5V11.3996Z" fill="#008D84"/>
<path d="M16.0002 24.6873H14.0002C12.8002 24.6873 11.8127 23.6998 11.8127 22.4998V7.7373C11.8127 6.5373 12.8002 5.5498 14.0002 5.5498H16.0002C17.2002 5.5498 18.1877 6.5373 18.1877 7.7373V22.4998C18.1877 23.6998 17.2002 24.6873 16.0002 24.6873ZM14.0002 7.4248C13.8252 7.4248 13.6877 7.5623 13.6877 7.7373V22.4998C13.6877 22.6748 13.8252 22.8123 14.0002 22.8123H16.0002C16.1752 22.8123 16.3127 22.6748 16.3127 22.4998V7.7373C16.3127 7.5623 16.1752 7.4248 16.0002 7.4248H14.0002Z" fill="#008D84"/>
<path d="M24.9998 24.6875H22.9999C21.7999 24.6875 20.8124 23.7 20.8124 22.5V3.75C20.8124 2.55 21.7999 1.5625 22.9999 1.5625H24.9998C26.1998 1.5625 27.1873 2.55 27.1873 3.75V22.5C27.1873 23.7 26.1998 24.6875 24.9998 24.6875ZM22.9999 3.4375C22.8249 3.4375 22.6874 3.575 22.6874 3.75V22.5C22.6874 22.675 22.8249 22.8125 22.9999 22.8125H24.9998C25.1748 22.8125 25.3123 22.675 25.3123 22.5V3.75C25.3123 3.575 25.1748 3.4375 24.9998 3.4375H22.9999Z" fill="#008D84"/>
</svg>
