<svg width="30" height="30" viewBox="0 0 30 30" fill="none" xmlns="http://www.w3.org/2000/svg">
<path d="M13.5125 21.1873C13.275 21.1873 13.0375 21.0998 12.85 20.9123L10.975 19.0373C10.6125 18.6748 10.6125 18.0748 10.975 17.7123C11.3375 17.3498 11.9375 17.3498 12.3 17.7123L13.5125 18.9248L17.85 14.5873C18.2125 14.2248 18.8125 14.2248 19.175 14.5873C19.5375 14.9498 19.5375 15.5498 19.175 15.9123L14.175 20.9123C14 21.0998 13.75 21.1873 13.5125 21.1873Z" fill="#008D84"/>
<path d="M17.5 8.4375H12.5C11.3 8.4375 9.0625 8.4375 9.0625 5C9.0625 1.5625 11.3 1.5625 12.5 1.5625H17.5C18.7 1.5625 20.9375 1.5625 20.9375 5C20.9375 6.2 20.9375 8.4375 17.5 8.4375ZM12.5 3.4375C11.2625 3.4375 10.9375 3.4375 10.9375 5C10.9375 6.5625 11.2625 6.5625 12.5 6.5625H17.5C19.0625 6.5625 19.0625 6.2375 19.0625 5C19.0625 3.4375 18.7375 3.4375 17.5 3.4375H12.5Z" fill="#008D84"/>
<path d="M18.75 28.437H11.25C4.225 28.437 2.8125 25.212 2.8125 19.9995V12.4995C2.8125 6.79955 4.875 4.36205 9.95 4.09955C10.4625 4.07455 10.9125 4.46205 10.9375 4.98705C10.9625 5.51205 10.5625 5.93705 10.05 5.96205C6.5 6.16205 4.6875 7.22455 4.6875 12.4995V19.9995C4.6875 24.6245 5.6 26.562 11.25 26.562H18.75C24.4 26.562 25.3125 24.6245 25.3125 19.9995V12.4995C25.3125 7.22455 23.5 6.16205 19.95 5.96205C19.4375 5.93705 19.0375 5.48705 19.0625 4.97455C19.0875 4.46205 19.525 4.06205 20.05 4.08705C25.125 4.36205 27.1875 6.79955 27.1875 12.487V19.987C27.1875 25.212 25.775 28.437 18.75 28.437Z" fill="#008D84"/>
</svg>
