<svg width="30" height="30" viewBox="0 0 30 30" fill="none" xmlns="http://www.w3.org/2000/svg">
<path d="M7.49969 28.4372C7.12469 28.4372 6.72469 28.3997 6.32469 28.3247C6.11219 28.2747 5.92469 28.2247 5.73719 28.1747C5.52469 28.1122 5.32468 28.0372 5.13718 27.9622C5.08718 27.9497 5.04971 27.9247 5.01221 27.9122C4.57471 27.6872 4.19969 27.4622 3.86219 27.2122C3.83719 27.1997 3.82471 27.1747 3.79971 27.1622C3.61221 27.0122 3.43719 26.8622 3.27469 26.6872C3.09969 26.4997 2.97468 26.3497 2.83718 26.1997C2.54968 25.8247 2.31219 25.4497 2.09969 25.0122C2.07469 24.9747 2.06221 24.9247 2.04971 24.8747C1.97471 24.6997 1.91218 24.5247 1.86218 24.3372C1.78718 24.0747 1.73718 23.8997 1.69968 23.7122C1.61218 23.2747 1.57471 22.8872 1.57471 22.5122V5.63721C1.57471 3.24971 3.24971 1.57471 5.63721 1.57471H9.38721C11.7747 1.57471 13.4497 3.24971 13.4497 5.63721V22.4997C13.4497 24.0497 12.8497 25.5247 11.7622 26.6372C11.5622 26.8372 11.4122 26.9747 11.2747 27.0872C10.8747 27.4372 10.3622 27.7497 9.8122 27.9747C9.6872 28.0247 9.53719 28.0872 9.37469 28.1497C8.76219 28.3372 8.12469 28.4372 7.49969 28.4372ZM5.92468 26.2497C6.04968 26.2997 6.17471 26.3372 6.29971 26.3747C6.43721 26.4122 6.57469 26.4497 6.71219 26.4872C7.39969 26.6122 8.13721 26.5747 8.72471 26.3747C8.81221 26.3372 8.93718 26.2997 9.04968 26.2497C9.44968 26.0872 9.77468 25.8872 10.0622 25.6497C10.1872 25.5497 10.2747 25.4622 10.3622 25.3872C11.1497 24.5747 11.5622 23.5747 11.5622 22.5122V5.63721C11.5622 4.28721 10.7247 3.44971 9.37469 3.44971H5.62469C4.27469 3.44971 3.43719 4.28721 3.43719 5.63721V22.4997C3.43719 22.7622 3.4622 23.0372 3.5247 23.3247C3.5497 23.4372 3.58719 23.5747 3.62469 23.7247C3.67469 23.8622 3.71221 23.9747 3.76221 24.0997C3.78721 24.1372 3.79968 24.1747 3.81218 24.1997C3.82468 24.2247 3.83718 24.2622 3.84968 24.2872C3.99968 24.5622 4.14971 24.7997 4.31221 25.0122C4.39971 25.1122 4.51221 25.2372 4.62471 25.3622C4.76221 25.5122 4.87469 25.5997 4.99969 25.6997C5.01219 25.7122 5.03721 25.7247 5.04971 25.7372C5.24971 25.8872 5.47469 26.0247 5.73719 26.1622C5.76219 26.1747 5.78719 26.1747 5.81219 26.1872C5.83719 26.1997 5.87468 26.2247 5.92468 26.2497Z" fill="url(#paint0_linear_328_6650)"/>
<path d="M24.375 28.4372H7.5C6.9875 28.4372 6.5625 28.0122 6.5625 27.4997C6.5625 26.9872 6.9875 26.5622 7.5 26.5622C7.9375 26.5622 8.36251 26.4997 8.72501 26.3747C8.81251 26.3372 8.93749 26.2997 9.04999 26.2497C9.44999 26.0872 9.77498 25.8872 10.0625 25.6497C10.1875 25.5497 10.275 25.4622 10.3625 25.3872L18.9125 16.8497C19.0875 16.6747 19.325 16.5747 19.575 16.5747H24.375C26.7625 16.5747 28.4375 18.2497 28.4375 20.6372V24.3872C28.4375 26.7622 26.7625 28.4372 24.375 28.4372ZM11.825 26.5622H24.375C25.725 26.5622 26.5625 25.7247 26.5625 24.3747V20.6247C26.5625 19.2747 25.725 18.4372 24.375 18.4372H19.9625L11.825 26.5622Z" fill="url(#paint1_linear_328_6650)"/>
<path d="M6.01275 28.2126C5.92525 28.2126 5.83776 28.2 5.75026 28.175C4.82526 27.9 3.97527 27.3875 3.30027 26.7C2.62527 26.0375 2.11275 25.1876 1.83775 24.2625C1.68775 23.7625 1.96275 23.25 2.46275 23.1C2.96275 22.95 3.47526 23.225 3.63776 23.7125C4.03776 24.9875 5.03774 25.9875 6.31274 26.3875C6.80024 26.5375 7.07526 27.0625 6.92526 27.5625C6.78776 27.95 6.41275 28.2126 6.01275 28.2126Z" fill="url(#paint2_linear_328_6650)"/>
<path d="M11.075 26.9249C10.8375 26.9249 10.6 26.8374 10.4125 26.6499C10.05 26.2874 10.0375 25.6999 10.4 25.3249C11.15 24.5624 11.5625 23.5499 11.5625 22.4874V10.4124C11.5625 10.1624 11.6625 9.92491 11.8375 9.74991L15.225 6.3624C16.8625 4.7249 19.3375 4.7249 20.975 6.3624L23.625 9.01242C25.3125 10.6999 25.3125 13.0749 23.625 14.7624L11.7375 26.6374C11.55 26.8374 11.3125 26.9249 11.075 26.9249ZM13.4375 10.8124V22.2999L22.3 13.4499C23.25 12.4999 23.25 11.3124 22.3 10.3499L19.65 7.69991C18.7125 6.76241 17.4875 6.76241 16.55 7.69991L13.4375 10.8124Z" fill="url(#paint3_linear_328_6650)"/>
<path d="M7.5 24.6875C6.3 24.6875 5.3125 23.7 5.3125 22.5C5.3125 21.3 6.3 20.3125 7.5 20.3125C8.7 20.3125 9.6875 21.3 9.6875 22.5C9.6875 23.7 8.7 24.6875 7.5 24.6875ZM7.5 22.1875C7.325 22.1875 7.1875 22.325 7.1875 22.5C7.1875 22.85 7.8125 22.85 7.8125 22.5C7.8125 22.325 7.675 22.1875 7.5 22.1875Z" fill="url(#paint4_linear_328_6650)"/>
<defs>
<linearGradient id="paint0_linear_328_6650" x1="7.51221" y1="1.57471" x2="7.51221" y2="28.4372" gradientUnits="userSpaceOnUse">
<stop stop-color="#008D84"/>
<stop offset="1" stop-color="#32BCAD"/>
</linearGradient>
<linearGradient id="paint1_linear_328_6650" x1="17.5" y1="16.5747" x2="17.5" y2="28.4372" gradientUnits="userSpaceOnUse">
<stop stop-color="#008D84"/>
<stop offset="1" stop-color="#32BCAD"/>
</linearGradient>
<linearGradient id="paint2_linear_328_6650" x1="4.38155" y1="23.0591" x2="4.38155" y2="28.2126" gradientUnits="userSpaceOnUse">
<stop stop-color="#008D84"/>
<stop offset="1" stop-color="#32BCAD"/>
</linearGradient>
<linearGradient id="paint3_linear_328_6650" x1="17.5124" y1="5.13428" x2="17.5124" y2="26.9249" gradientUnits="userSpaceOnUse">
<stop stop-color="#008D84"/>
<stop offset="1" stop-color="#32BCAD"/>
</linearGradient>
<linearGradient id="paint4_linear_328_6650" x1="7.5" y1="20.3125" x2="7.5" y2="24.6875" gradientUnits="userSpaceOnUse">
<stop stop-color="#008D84"/>
<stop offset="1" stop-color="#32BCAD"/>
</linearGradient>
</defs>
</svg>
