<svg width="430" height="315" viewBox="0 0 430 315" fill="none" xmlns="http://www.w3.org/2000/svg">
<rect x="0.5" y="0.5" width="429" height="314" rx="9.5" fill="#292929" stroke="white"/>
<circle cx="21.5" cy="25.5" r="4.5" fill="#D14444"/>
<circle cx="33.5" cy="25.5" r="4.5" fill="#FFAF52"/>
<circle cx="45.5" cy="25.5" r="4.5" fill="#87D326"/>
<rect width="363" height="20" transform="translate(26 73)" fill="#4B5563"/>
<rect width="301" height="20" transform="translate(26 100)" fill="#4B5563"/>
<rect width="207" height="20" transform="translate(26 127)" fill="#4B5563"/>
<rect width="207" height="20" transform="translate(26 154)" fill="#4B5563"/>
<rect width="207" height="20" transform="translate(26 181)" fill="#4B5563"/>
<rect width="129" height="20" transform="matrix(0 -1 1 0 264 276)" fill="#4B5563"/>
<rect width="65" height="20" transform="matrix(0 -1 1 0 299 276)" fill="#4B5563"/>
<rect width="97" height="20" transform="matrix(0 -1 1 0 334 276)" fill="#4B5563"/>
<rect width="129" height="20" transform="matrix(0 -1 1 0 369 276)" fill="#4B5563"/>
<rect width="134" height="20" transform="translate(26 208)" fill="#4B5563"/>
<rect width="125" height="3" transform="translate(264 281)" fill="#4B5563"/>
</svg>
