<svg width="30" height="30" viewBox="0 0 30 30" fill="none" xmlns="http://www.w3.org/2000/svg">
<path d="M14.25 28.4375H9.5C4.0125 28.4375 1.5625 25.9875 1.5625 20.5V15.75C1.5625 10.2625 4.0125 7.8125 9.5 7.8125H13.25C13.7625 7.8125 14.1875 8.2375 14.1875 8.75C14.1875 9.2625 13.7625 9.6875 13.25 9.6875H9.5C5.025 9.6875 3.4375 11.275 3.4375 15.75V20.5C3.4375 24.975 5.025 26.5625 9.5 26.5625H14.25C18.725 26.5625 20.3125 24.975 20.3125 20.5V16.75C20.3125 16.2375 20.7375 15.8125 21.25 15.8125C21.7625 15.8125 22.1875 16.2375 22.1875 16.75V20.5C22.1875 25.9875 19.7375 28.4375 14.25 28.4375Z" fill="#008D84"/>
<path d="M21.25 17.6876H17.25C13.7375 17.6876 12.3125 16.2626 12.3125 12.7501V8.75011C12.3125 8.37511 12.5375 8.02511 12.8875 7.88761C13.2375 7.73761 13.6375 7.82511 13.9125 8.08761L21.9125 16.0876C22.175 16.3501 22.2625 16.7626 22.1125 17.1126C21.975 17.4626 21.625 17.6876 21.25 17.6876ZM14.1875 11.0126V12.7501C14.1875 15.2376 14.7625 15.8126 17.25 15.8126H18.9875L14.1875 11.0126Z" fill="#008D84"/>
<path d="M19.5 3.4375H14.5C13.9875 3.4375 13.5625 3.0125 13.5625 2.5C13.5625 1.9875 13.9875 1.5625 14.5 1.5625H19.5C20.0125 1.5625 20.4375 1.9875 20.4375 2.5C20.4375 3.0125 20.0125 3.4375 19.5 3.4375Z" fill="#008D84"/>
<path d="M8.75 7.1875C8.2375 7.1875 7.8125 6.7625 7.8125 6.25C7.8125 3.6625 9.9125 1.5625 12.5 1.5625H15.775C16.2875 1.5625 16.7125 1.9875 16.7125 2.5C16.7125 3.0125 16.2875 3.4375 15.775 3.4375H12.5C10.95 3.4375 9.6875 4.7 9.6875 6.25C9.6875 6.7625 9.2625 7.1875 8.75 7.1875Z" fill="#008D84"/>
<path d="M23.9875 22.1875C23.475 22.1875 23.05 21.7625 23.05 21.25C23.05 20.7375 23.475 20.3125 23.9875 20.3125C25.4125 20.3125 26.5625 19.15 26.5625 17.7375V10C26.5625 9.4875 26.9875 9.0625 27.5 9.0625C28.0125 9.0625 28.4375 9.4875 28.4375 10V17.7375C28.4375 20.1875 26.4375 22.1875 23.9875 22.1875Z" fill="#008D84"/>
<path d="M27.5 10.9376H23.75C20.425 10.9376 19.0625 9.57511 19.0625 6.25011V2.50011C19.0625 2.12511 19.2875 1.77511 19.6375 1.63761C19.9875 1.48761 20.3875 1.57511 20.6625 1.83761L28.1625 9.33761C28.425 9.60011 28.5125 10.0126 28.3625 10.3626C28.225 10.7126 27.875 10.9376 27.5 10.9376ZM20.9375 4.76261V6.25011C20.9375 8.53761 21.4625 9.06261 23.75 9.06261H25.2375L20.9375 4.76261Z" fill="#008D84"/>
</svg>
