<svg width="30" height="30" viewBox="0 0 30 30" fill="none" xmlns="http://www.w3.org/2000/svg">
<path d="M6.92498 24.3999C6.16248 24.3999 5.44998 24.1374 4.93748 23.6499C4.28748 23.0374 3.97498 22.1124 4.08748 21.1124L4.54998 17.0624C4.63748 16.2999 5.09998 15.2874 5.63748 14.7374L15.9 3.87494C18.4625 1.16244 21.1375 1.08744 23.85 3.64994C26.5625 6.21244 26.6375 8.88744 24.075 11.5999L13.8125 22.4624C13.2875 23.0249 12.3125 23.5499 11.55 23.6749L7.52498 24.3624C7.31248 24.3749 7.12498 24.3999 6.92498 24.3999ZM19.9125 3.63744C18.95 3.63744 18.1125 4.23744 17.2625 5.13744L6.99998 16.0124C6.74998 16.2749 6.46248 16.8999 6.41248 17.2624L5.94998 21.3124C5.89998 21.7249 5.99998 22.0624 6.22498 22.2749C6.44998 22.4874 6.78748 22.5624 7.19998 22.4999L11.225 21.8124C11.5875 21.7499 12.1875 21.4249 12.4375 21.1624L22.7 10.2999C24.25 8.64994 24.8125 7.12494 22.55 4.99994C21.55 4.03744 20.6875 3.63744 19.9125 3.63744Z" fill="url(#paint0_linear_328_6633)"/>
<path d="M21.6751 13.6876C21.6501 13.6876 21.6126 13.6876 21.5876 13.6876C17.6876 13.3001 14.5501 10.3376 13.9501 6.46256C13.8751 5.95006 14.2251 5.47506 14.7376 5.38756C15.2501 5.31256 15.7251 5.66256 15.8126 6.17506C16.2876 9.20006 18.7376 11.5251 21.7876 11.8251C22.3001 11.8751 22.6751 12.3376 22.6251 12.8501C22.5626 13.3251 22.1501 13.6876 21.6751 13.6876Z" fill="url(#paint1_linear_328_6633)"/>
<path d="M26.25 28.4375H3.75C3.2375 28.4375 2.8125 28.0125 2.8125 27.5C2.8125 26.9875 3.2375 26.5625 3.75 26.5625H26.25C26.7625 26.5625 27.1875 26.9875 27.1875 27.5C27.1875 28.0125 26.7625 28.4375 26.25 28.4375Z" fill="url(#paint2_linear_328_6633)"/>
<defs>
<linearGradient id="paint0_linear_328_6633" x1="15.0036" y1="1.78271" x2="15.0036" y2="24.3999" gradientUnits="userSpaceOnUse">
<stop stop-color="#008D84"/>
<stop offset="1" stop-color="#32BCAD"/>
</linearGradient>
<linearGradient id="paint1_linear_328_6633" x1="18.2847" y1="5.37744" x2="18.2847" y2="13.6876" gradientUnits="userSpaceOnUse">
<stop stop-color="#008D84"/>
<stop offset="1" stop-color="#32BCAD"/>
</linearGradient>
<linearGradient id="paint2_linear_328_6633" x1="15" y1="26.5625" x2="15" y2="28.4375" gradientUnits="userSpaceOnUse">
<stop stop-color="#008D84"/>
<stop offset="1" stop-color="#32BCAD"/>
</linearGradient>
</defs>
</svg>
