<svg width="29" height="30" viewBox="0 0 29 30" fill="none" xmlns="http://www.w3.org/2000/svg">
<path d="M14.5 19.6875C11.9988 19.6875 9.96875 17.5875 9.96875 15C9.96875 12.4125 11.9988 10.3125 14.5 10.3125C17.0013 10.3125 19.0313 12.4125 19.0313 15C19.0313 17.5875 17.0013 19.6875 14.5 19.6875ZM14.5 12.1875C13.0017 12.1875 11.7813 13.45 11.7813 15C11.7813 16.55 13.0017 17.8125 14.5 17.8125C15.9983 17.8125 17.2188 16.55 17.2188 15C17.2188 13.45 15.9983 12.1875 14.5 12.1875Z" fill="#008D84"/>
<path d="M18.3787 27.7374C18.125 27.7374 17.8712 27.6999 17.6175 27.6374C16.8683 27.4249 16.24 26.9374 15.8412 26.2499L15.6962 25.9999C14.9833 24.7249 14.0045 24.7249 13.2916 25.9999L13.1587 26.2374C12.76 26.9374 12.1316 27.4374 11.3825 27.6374C10.6212 27.8499 9.83579 27.7374 9.17121 27.3249L7.09288 26.0874C6.35579 25.6499 5.82413 24.9374 5.59454 24.0749C5.37704 23.2124 5.48579 22.3249 5.90871 21.5624C6.25913 20.9249 6.35579 20.3499 6.15038 19.9874C5.94496 19.6249 5.42538 19.4124 4.71246 19.4124C2.94829 19.4124 1.51038 17.9249 1.51038 16.0999V13.8999C1.51038 12.0749 2.94829 10.5874 4.71246 10.5874C5.42538 10.5874 5.94496 10.3749 6.15038 10.0124C6.35579 9.64987 6.27121 9.07487 5.90871 8.43737C5.48579 7.67487 5.37704 6.77487 5.59454 5.92487C5.81204 5.06237 6.34371 4.34987 7.09288 3.91237L9.18329 2.67487C10.5487 1.83737 12.3491 2.32487 13.1708 3.76237L13.3158 4.01237C14.0287 5.28737 15.0075 5.28737 15.7204 4.01237L15.8533 3.77487C16.675 2.32487 18.4754 1.83737 19.8529 2.68737L21.9312 3.92487C22.6683 4.36237 23.2 5.07487 23.4295 5.93737C23.647 6.79987 23.5383 7.68737 23.1154 8.44987C22.765 9.08737 22.6683 9.66237 22.8737 10.0249C23.0791 10.3874 23.5987 10.5999 24.3116 10.5999C26.0758 10.5999 27.5137 12.0874 27.5137 13.9124V16.1124C27.5137 17.9374 26.0758 19.4249 24.3116 19.4249C23.5987 19.4249 23.0791 19.6374 22.8737 19.9999C22.6683 20.3624 22.7529 20.9374 23.1154 21.5749C23.5383 22.3374 23.6591 23.2374 23.4295 24.0874C23.212 24.9499 22.6804 25.6624 21.9312 26.0999L19.8408 27.3374C19.3816 27.5999 18.8862 27.7374 18.3787 27.7374ZM14.5 23.1124C15.5754 23.1124 16.5783 23.8124 17.267 25.0499L17.4 25.2874C17.545 25.5499 17.7866 25.7374 18.0766 25.8124C18.3666 25.8874 18.6566 25.8499 18.8983 25.6999L20.9887 24.4499C21.3029 24.2624 21.5445 23.9499 21.6412 23.5749C21.7379 23.1999 21.6895 22.8124 21.5083 22.4874C20.8195 21.2624 20.735 19.9999 21.2666 19.0374C21.7983 18.0749 22.8979 17.5249 24.2754 17.5249C25.0487 17.5249 25.665 16.8874 25.665 16.0874V13.8874C25.665 13.0999 25.0487 12.4499 24.2754 12.4499C22.8979 12.4499 21.7983 11.8999 21.2666 10.9374C20.735 9.97487 20.8195 8.71237 21.5083 7.48737C21.6895 7.16237 21.7379 6.77487 21.6412 6.39987C21.5445 6.02487 21.315 5.72487 21.0008 5.52487L18.9104 4.28737C18.3908 3.96237 17.702 4.14987 17.3879 4.69987L17.255 4.93737C16.5662 6.17487 15.5633 6.87487 14.4879 6.87487C13.4125 6.87487 12.4095 6.17487 11.7208 4.93737L11.5879 4.68737C11.2858 4.16237 10.6091 3.97487 10.0895 4.28737L7.99913 5.53737C7.68496 5.72487 7.44329 6.03737 7.34663 6.41237C7.24996 6.78737 7.29829 7.17487 7.47954 7.49987C8.16829 8.72487 8.25288 9.98737 7.72121 10.9499C7.18954 11.9124 6.08996 12.4624 4.71246 12.4624C3.93913 12.4624 3.32288 13.0999 3.32288 13.8999V16.0999C3.32288 16.8874 3.93913 17.5374 4.71246 17.5374C6.08996 17.5374 7.18954 18.0874 7.72121 19.0499C8.25288 20.0124 8.16829 21.2749 7.47954 22.4999C7.29829 22.8249 7.24996 23.2124 7.34663 23.5874C7.44329 23.9624 7.67288 24.2624 7.98704 24.4624L10.0775 25.6999C10.3312 25.8624 10.6333 25.8999 10.9112 25.8249C11.2012 25.7499 11.4429 25.5499 11.6 25.2874L11.7329 25.0499C12.4216 23.8249 13.4245 23.1124 14.5 23.1124Z" fill="#008D84"/>
</svg>
