<svg width="891" height="55" viewBox="0 0 891 55" fill="none" xmlns="http://www.w3.org/2000/svg">
<line x1="11" y1="54" x2="878" y2="54.0001" stroke="#008D84" stroke-width="2" stroke-dasharray="5 5"/>
<path d="M8.70711 0.292891C8.31658 -0.0976344 7.68342 -0.0976344 7.2929 0.292891L0.928935 6.65685C0.538411 7.04737 0.538411 7.68054 0.928935 8.07106C1.31946 8.46159 1.95262 8.46159 2.34315 8.07106L8 2.41421L13.6569 8.07106C14.0474 8.46159 14.6805 8.46159 15.0711 8.07106C15.4616 7.68054 15.4616 7.04737 15.0711 6.65685L8.70711 0.292891ZM9 55L9 52.3L7 52.3L7 55L9 55ZM9 46.9L9 41.5L7 41.5L7 46.9L9 46.9ZM9 36.1L9 30.7L7 30.7L7 36.1L9 36.1ZM9 25.3L9 19.9L7 19.9L7 25.3L9 25.3ZM9 14.5L9 9.1L7 9.1L7 14.5L9 14.5ZM9 3.7L9 0.999995L7 0.999995L7 3.7L9 3.7Z" fill="#008D84"/>
<path d="M883.707 0.292891C883.317 -0.0976344 882.683 -0.0976344 882.293 0.292891L875.929 6.65685C875.538 7.04737 875.538 7.68054 875.929 8.07106C876.319 8.46159 876.953 8.46159 877.343 8.07106L883 2.41421L888.657 8.07106C889.047 8.46159 889.681 8.46159 890.071 8.07106C890.462 7.68054 890.462 7.04737 890.071 6.65685L883.707 0.292891ZM884 55L884 52.3L882 52.3L882 55L884 55ZM884 46.9L884 41.5L882 41.5L882 46.9L884 46.9ZM884 36.1L884 30.7L882 30.7L882 36.1L884 36.1ZM884 25.3L884 19.9L882 19.9L882 25.3L884 25.3ZM884 14.5L884 9.1L882 9.1L882 14.5L884 14.5ZM884 3.7L884 0.999995L882 0.999995L882 3.7L884 3.7Z" fill="#008D84"/>
</svg>
