<svg width="182" height="44" viewBox="0 0 182 44" fill="none" xmlns="http://www.w3.org/2000/svg">
<g clip-path="url(#clip0_1_3)">
<path d="M44.3975 31.273V8.99329H48.5242V31.273H44.3975Z" fill="#24588D"/>
<path d="M57.1125 17.3762H57.1812C57.4403 17.0175 57.74 16.689 58.0744 16.3972C58.4496 16.0673 58.8633 15.7827 59.3069 15.5496C59.7922 15.2968 60.3051 15.0992 60.8356 14.9605C61.415 14.8061 62.0132 14.7305 62.6134 14.7359C63.192 14.734 63.7687 14.8008 64.331 14.9351C64.8701 15.0597 65.3849 15.2701 65.8555 15.5581C66.327 15.8483 66.7416 16.2201 67.0793 16.6557C67.4508 17.1407 67.7341 17.6856 67.9167 18.2662C68.0316 18.6318 68.1079 19.0082 68.1443 19.3893C68.1829 19.8131 68.2001 20.2623 68.2001 20.7964V31.2729H64.2022V21.4151C64.2022 20.9913 64.2022 20.6099 64.155 20.3005C64.1317 20.0261 64.0741 19.7556 63.9832 19.4953C63.8216 19.0317 63.4951 18.6417 63.0643 18.3976C62.6037 18.1653 62.0912 18.0516 61.5742 18.067C60.7954 18.0665 60.028 18.2511 59.3369 18.6053C58.5965 18.9878 57.9489 19.5242 57.4389 20.1776V31.2729H53.441V15.1385H56.7475L57.1125 17.3762Z" fill="#24588D"/>
<path d="M87.1975 15.1385L80.8722 31.273H76.9087L70.5619 15.1385H74.7831L77.059 21.2965C77.7117 23.0313 78.3071 24.7632 78.8454 26.4924H78.9141C79.3864 24.9949 79.9719 23.2997 80.6704 21.4066L82.9463 15.147L87.1975 15.1385Z" fill="#24588D"/>
<path d="M105.147 23.2121C105.161 24.3905 104.967 25.5624 104.572 26.6746C104.219 27.6721 103.658 28.5858 102.927 29.3573C102.203 30.108 101.325 30.6962 100.351 31.0822C99.2713 31.498 98.1209 31.7038 96.9625 31.6883C95.7887 31.7041 94.6227 31.4984 93.5271 31.0822C92.5518 30.6982 91.6727 30.1097 90.9506 29.3573C90.2262 28.5836 89.6721 27.6702 89.3231 26.6746C88.9333 25.5613 88.7415 24.3899 88.7563 23.2121C88.7424 22.0336 88.9372 20.8619 89.3317 19.7496C89.6854 18.7536 90.2455 17.8414 90.9764 17.0711C91.6988 16.3191 92.5778 15.7306 93.5529 15.3462C94.633 14.9284 95.7853 14.7226 96.9453 14.7401C98.1192 14.722 99.2857 14.9278 100.381 15.3462C101.357 15.7286 102.236 16.3173 102.957 17.0711C103.683 17.8424 104.237 18.7547 104.585 19.7496C104.973 20.8632 105.163 22.0346 105.147 23.2121ZM101.012 23.2121C101.025 22.4472 100.924 21.6846 100.711 20.9489C100.535 20.3501 100.243 19.7905 99.8524 19.3003C99.5111 18.8692 99.0691 18.526 98.5642 18.3001C98.0427 18.0766 97.4794 17.964 96.9109 17.9695C96.3508 17.9644 95.796 18.0771 95.2834 18.3001C94.7792 18.527 94.3374 18.87 93.9952 19.3003C93.6044 19.7904 93.3128 20.3501 93.1363 20.9489C92.9223 21.6844 92.8195 22.447 92.8315 23.2121C92.8199 23.9785 92.9226 24.7425 93.1363 25.4795C93.3102 26.0754 93.6022 26.6315 93.9952 27.1154C94.3415 27.5416 94.7822 27.8838 95.2834 28.1156C95.7999 28.342 96.3587 28.459 96.9238 28.459C97.4889 28.459 98.0477 28.342 98.5642 28.1156C99.0661 27.8848 99.507 27.5425 99.8524 27.1154C100.244 26.6305 100.536 26.0748 100.711 25.4795C100.924 24.7423 101.025 23.9783 101.012 23.2121Z" fill="#24588D"/>
<path d="M108.69 7.16241H112.89V11.4429H108.69V7.16241ZM108.793 15.1385H112.791V31.273H108.793V15.1385Z" fill="#24588D"/>
<path d="M129.542 19.3512C131.16 21.6285 132.475 23.6487 133.489 25.4117H133.587C133.456 22.5128 133.389 20.4037 133.386 19.0842V8.99329H137.521V31.273H133.184L125.819 21.0168C124.534 19.2396 123.198 17.1785 121.813 14.8334H121.714C121.847 17.567 121.916 19.6775 121.916 21.1906V31.273H117.781V8.99329H122.118L129.542 19.3512Z" fill="#008D84"/>
<path d="M150.829 28.5097C151.644 28.5054 152.458 28.4259 153.259 28.2724C154.133 28.1138 154.995 27.8914 155.836 27.607V30.7559C155.067 31.0462 154.269 31.2578 153.457 31.3874C152.361 31.5897 151.248 31.6905 150.133 31.6883C149.019 31.6985 147.909 31.5559 146.835 31.2645C145.835 30.9877 144.906 30.5021 144.113 29.8405C143.307 29.1447 142.675 28.2744 142.266 27.2976C141.778 26.0853 141.545 24.7874 141.583 23.4833C141.555 22.1741 141.772 20.8709 142.223 19.6394C142.597 18.6202 143.182 17.6891 143.941 16.9058C144.638 16.1981 145.48 15.6448 146.41 15.2826C147.326 14.9251 148.302 14.7424 149.287 14.7444C150.261 14.7328 151.229 14.8906 152.147 15.2106C153.007 15.5131 153.782 16.0145 154.406 16.6727C155.079 17.4138 155.581 18.29 155.879 19.241C156.255 20.4456 156.435 21.7017 156.411 22.962C156.411 23.5172 156.381 23.9919 156.359 24.3776H145.65C145.685 25.0408 145.857 25.69 146.157 26.2847C146.421 26.786 146.799 27.2209 147.26 27.5562C147.741 27.8931 148.283 28.1349 148.858 28.2682C149.502 28.4296 150.164 28.5108 150.829 28.5097ZM149.227 17.8C148.779 17.7931 148.336 17.8828 147.927 18.0629C147.518 18.243 147.154 18.5091 146.861 18.8426C146.568 19.1682 146.337 19.5428 146.178 19.9488C146.008 20.3819 145.896 20.8349 145.843 21.2965H152.284C152.287 20.8403 152.222 20.3862 152.091 19.9488C151.971 19.5485 151.778 19.1735 151.52 18.8426C151.266 18.5257 150.943 18.2692 150.575 18.0925C150.155 17.8931 149.693 17.7929 149.227 17.8Z" fill="#008D84"/>
<path d="M170.114 31.256C169.585 31.4036 169.045 31.5085 168.499 31.5697C167.921 31.6465 167.339 31.6862 166.756 31.6883C165.597 31.7317 164.444 31.5067 163.389 31.0314C162.564 30.6396 161.909 29.969 161.543 29.1412C161.254 28.3748 161.122 27.5594 161.156 26.7425V18.3849H158.103V15.1385H161.156V10.6249H165.154V15.1385H169.878V18.3849H165.154V26.2254C165.121 26.7027 165.219 27.1799 165.437 27.607C165.778 28.1325 166.448 28.3953 167.447 28.3953C167.907 28.396 168.367 28.3606 168.821 28.2894C169.255 28.2205 169.685 28.1285 170.109 28.0139L170.114 31.256Z" fill="#008D84"/>
<path d="M18.8085 5.97151L30.5917 6.61994C31.9081 5.84785 33.3009 5.21025 34.7485 4.71704L16.3179 3.69989C9.83366 18.4782 15.459 35.2653 15.459 35.2653C15.4266 32.8224 15.6148 30.3814 16.0216 27.9715C15.3388 21.8602 15.459 13.6467 18.8085 5.97151Z" fill="#68E0CC"/>
<path d="M40.0389 8.70081C38.1374 9.73892 36.3649 10.9919 34.7571 12.4346C33.8467 15.9692 33.297 21.4363 34.5037 29.459L21.3764 35.8501C21.1402 36.9478 20.947 38.0751 20.758 39.2406L37.3164 31.1882C34.7828 14.2697 40.0389 8.70081 40.0389 8.70081Z" fill="#0075BF"/>
<path d="M21.3764 35.8671L34.4994 29.476C33.2927 21.4533 33.8424 15.9861 34.7571 12.4515C30.2009 16.4057 23.9701 23.7885 21.3764 35.8671Z" fill="#24588D"/>
<path d="M30.5917 6.61993L18.8042 5.9715C15.459 13.6467 15.3345 21.8602 16.0173 27.9715C18.1085 15.5962 25.735 9.38317 30.5917 6.61993Z" fill="#008D84"/>
<path d="M30.5917 6.61993C25.735 9.38318 18.1128 15.5962 16.0173 27.9715C16.354 31.2085 16.9995 34.4069 17.9454 37.5242L21.3807 35.8501C23.9572 23.7715 30.2052 16.393 34.7613 12.4389C35.7705 8.51437 37.2262 6.9717 37.2262 6.9717L30.5917 6.61993Z" fill="#5B99CA"/>
</g>
<defs>
<clipPath id="clip0_1_3">
<rect width="182" height="44" fill="white"/>
</clipPath>
</defs>
</svg>
