<svg width="30" height="30" viewBox="0 0 30 30" fill="none" xmlns="http://www.w3.org/2000/svg">
<path d="M13.175 27.425C12.8875 27.425 12.6125 27.3 12.425 27.05L11.1625 25.3625C10.9 25.0125 10.5501 24.8125 10.1751 24.7875C9.78756 24.7625 9.42502 24.9375 9.12502 25.25C7.31252 27.1875 5.93754 27.025 5.27504 26.775C4.60004 26.5125 3.46252 25.65 3.46252 22.875V8.80001C3.46252 3.25001 5.06253 1.5625 10.3 1.5625H19.7375C24.975 1.5625 26.5751 3.25001 26.5751 8.80001V14.125C26.5751 14.6375 26.1501 15.0625 25.6376 15.0625C25.125 15.0625 24.7001 14.6375 24.7001 14.125V8.80001C24.7001 4.28751 23.9125 3.4375 19.7375 3.4375H10.3C6.12503 3.4375 5.33752 4.28751 5.33752 8.80001V22.875C5.33752 24.1875 5.66252 24.9125 5.96252 25.025C6.18752 25.1125 6.80005 24.9875 7.75005 23.975C8.43755 23.25 9.33754 22.8625 10.275 22.9125C11.2 22.9625 12.075 23.45 12.6625 24.2375L13.9375 25.925C14.25 26.3375 14.1625 26.925 13.75 27.2375C13.5625 27.375 13.3625 27.425 13.175 27.425Z" fill="#008D84"/>
<path d="M20 9.6875H10C9.4875 9.6875 9.0625 9.2625 9.0625 8.75C9.0625 8.2375 9.4875 7.8125 10 7.8125H20C20.5125 7.8125 20.9375 8.2375 20.9375 8.75C20.9375 9.2625 20.5125 9.6875 20 9.6875Z" fill="#008D84"/>
<path d="M18.75 14.6875H11.25C10.7375 14.6875 10.3125 14.2625 10.3125 13.75C10.3125 13.2375 10.7375 12.8125 11.25 12.8125H18.75C19.2625 12.8125 19.6875 13.2375 19.6875 13.75C19.6875 14.2625 19.2625 14.6875 18.75 14.6875Z" fill="#008D84"/>
<path d="M18.5251 27.225C18.0501 27.225 17.6001 27.05 17.2751 26.725C16.8876 26.3375 16.7126 25.775 16.8001 25.1875L17.0376 23.5C17.1001 23.0625 17.3626 22.5375 17.6751 22.225L22.1001 17.8C22.7001 17.2 23.2876 16.8875 23.9251 16.825C24.7001 16.75 25.4751 17.075 26.2001 17.8C26.9251 18.525 27.2501 19.2875 27.1751 20.075C27.1126 20.7 26.7876 21.3 26.2001 21.9L21.7751 26.325C21.4626 26.6375 20.9376 26.9 20.5001 26.9625L18.8125 27.2C18.7125 27.2125 18.6251 27.225 18.5251 27.225ZM24.1376 18.6875C24.1251 18.6875 24.1126 18.6875 24.1001 18.6875C23.9251 18.7 23.6876 18.8625 23.4251 19.125L19.0001 23.55C18.9626 23.5875 18.9001 23.7125 18.9001 23.7625L18.6751 25.325L20.2376 25.1C20.2876 25.0875 20.4125 25.025 20.45 24.9875L24.8751 20.5625C25.1376 20.2875 25.3001 20.0625 25.3126 19.8875C25.3376 19.6375 25.0876 19.3375 24.8751 19.125C24.6751 18.925 24.3876 18.6875 24.1376 18.6875Z" fill="#008D84"/>
<path d="M24.9001 22.8127C24.8126 22.8127 24.7251 22.8002 24.6501 22.7752C23.0001 22.3127 21.6876 21.0002 21.2251 19.3502C21.0876 18.8502 21.3751 18.3376 21.8751 18.1876C22.3751 18.0501 22.8876 18.3377 23.0251 18.8377C23.3126 19.8627 24.1251 20.6751 25.1501 20.9626C25.6501 21.1001 25.9376 21.6252 25.8001 22.1252C25.6876 22.5377 25.3126 22.8127 24.9001 22.8127Z" fill="#008D84"/>
</svg>
