<svg width="435" height="74" viewBox="0 0 435 74" fill="none" xmlns="http://www.w3.org/2000/svg">
<g clip-path="url(#clip0_328_6697)">
<path d="M62.2 32.2998H67.7L76.8 56.5998H71.3L69.5 51.1998H60.4L58.5 56.5998H53L62.2 32.2998ZM61.7 47.1998H68L64.9 38.2998H64.8L61.7 47.1998Z" fill="#6C6F75"/>
<path d="M89.2 54.2998C88 56.1998 86.1 56.9998 83.8 56.9998C78.5 56.9998 75.9 52.3998 75.9 47.5998C75.9 42.8998 78.5 38.4998 83.7 38.4998C85.8 38.4998 87.8 39.3998 88.9 41.0998H89V32.2998H93.8V56.5998H89.2V54.2998ZM85 42.0998C81.8 42.0998 80.8 44.7998 80.8 47.6998C80.8 50.4998 82.1 53.2998 85 53.2998C88.2 53.2998 89.1 50.4998 89.1 47.5998C89.2 44.7998 88.1 42.0998 85 42.0998Z" fill="#6C6F75"/>
<path d="M95.7 44.4C96 39.9 100 38.5 104 38.5C107.5 38.5 111.7 39.3 111.7 43.5V52.6C111.7 54.2 111.9 55.8 112.3 56.5H107.4C107.2 56 107.1 55.4 107.1 54.8C105.6 56.4 103.3 57 101.2 57C97.9 57 95.2 55.3 95.2 51.7C95.2 47.7 98.2 46.8 101.2 46.4C104.2 46 106.9 46.1 106.9 44.1C106.9 42 105.5 41.7 103.8 41.7C102 41.7 100.8 42.4 100.6 44.4H95.7ZM106.8 47.9C106 48.6 104.3 48.6 102.8 48.9C101.3 49.2 99.9 49.7 99.9 51.5C99.9 53.3 101.3 53.7 102.9 53.7C106.7 53.7 106.8 50.7 106.8 49.7V47.9Z" fill="#6C6F75"/>
<path d="M113.9 39H118.5V41.4H118.6C119.9 39.6 121.7 38.5 124 38.5C126.2 38.5 128.2 39.3 129.1 41.4C130.1 39.9 132 38.5 134.4 38.5C138.1 38.5 140.8 40.2 140.8 44.8V56.6H136V46.6C136 44.3 135.8 42.3 133 42.3C130.3 42.3 129.8 44.5 129.8 46.8V56.6H125V46.7C125 44.7 125.1 42.3 122.1 42.3C121.1 42.3 118.8 42.9 118.8 46.3V56.5H114V39H113.9Z" fill="#6C6F75"/>
<path d="M154.8 48.4998C154.8 51.6998 157.3 52.9998 160.2 52.9998C162.1 52.9998 164.9 52.4998 164.9 49.9998C164.9 47.3998 161.3 46.8998 157.7 45.9998C154.1 44.9998 150.5 43.6998 150.5 39.0998C150.5 34.0998 155.2 31.7998 159.6 31.7998C164.7 31.7998 169.3 33.9998 169.3 39.5998H164C163.8 36.6998 161.8 35.8998 159.2 35.8998C157.5 35.8998 155.5 36.5998 155.5 38.6998C155.5 40.5998 156.7 40.7998 162.7 42.3998C164.5 42.7998 169.9 43.9998 169.9 49.4998C169.9 53.9998 166.4 57.2998 159.8 57.2998C154.4 57.2998 149.4 54.5998 149.5 48.6998H154.8V48.4998Z" fill="#6C6F75"/>
<path d="M171.4 39H176V41.4H176.1C177.4 39.6 179.2 38.5 181.5 38.5C183.7 38.5 185.7 39.3 186.6 41.4C187.6 39.9 189.5 38.5 191.9 38.5C195.6 38.5 198.3 40.2 198.3 44.8V56.6H193.5V46.6C193.5 44.3 193.3 42.3 190.5 42.3C187.8 42.3 187.3 44.5 187.3 46.8V56.6H182.5V46.7C182.5 44.7 182.6 42.3 179.6 42.3C178.6 42.3 176.3 42.9 176.3 46.3V56.5H171.5V39H171.4Z" fill="#6C6F75"/>
<path d="M204.8 36.1997H200V32.1997H204.8V36.1997ZM200 38.9997H204.8V56.5997H200V38.9997Z" fill="#6C6F75"/>
<path d="M214 38.9997H217.5V42.1997H214V50.8997C214 52.4997 214.4 52.8997 216 52.8997C216.5 52.8997 217 52.8997 217.5 52.7997V56.5997C216.7 56.6997 215.6 56.7997 214.7 56.7997C211.7 56.7997 209.2 56.0997 209.2 52.5997V42.1997H206.3V38.9997H209.2V33.6997H214V38.9997Z" fill="#6C6F75"/>
<path d="M219.2 32.2998H224V41.3998H224.1C225.3 39.3998 227.4 38.4998 229.2 38.4998C234.3 38.4998 235.6 41.3998 235.6 45.6998V56.4998H230.8V46.5998C230.8 43.6998 229.9 42.2998 227.7 42.2998C225.1 42.2998 224 43.7998 224 47.2998V56.4998H219.2V32.2998Z" fill="#6C6F75"/>
<path d="M252.5 32.2998H258L267.1 56.5998H261.6L259.8 51.1998H250.7L248.8 56.5998H243.4L252.5 32.2998ZM252 47.1998H258.3L255.2 38.2998H255.1L252 47.1998Z" fill="#6C6F75"/>
<path d="M285.5 56.5H280.5L277.4 44.7H277.3L274.3 56.5H269.3L263.8 39H268.9L272.1 50.9H272.2L275.1 39H279.8L282.8 50.9H282.9L286.1 39H291.1L285.5 56.5Z" fill="#6C6F75"/>
<path d="M291.2 44.4C291.5 39.9 295.5 38.5 299.5 38.5C303 38.5 307.2 39.3 307.2 43.5V52.6C307.2 54.2 307.4 55.8 307.8 56.5H302.9C302.7 56 302.6 55.4 302.6 54.8C301.1 56.4 298.8 57 296.7 57C293.4 57 290.7 55.3 290.7 51.7C290.7 47.7 293.7 46.8 296.7 46.4C299.7 46 302.4 46.1 302.4 44.1C302.4 42 301 41.7 299.3 41.7C297.5 41.7 296.3 42.4 296.1 44.4H291.2ZM302.4 47.9C301.6 48.6 299.9 48.6 298.4 48.9C296.9 49.2 295.5 49.7 295.5 51.5C295.5 53.3 296.9 53.7 298.5 53.7C302.3 53.7 302.4 50.7 302.4 49.7V47.9Z" fill="#6C6F75"/>
<path d="M309.3 38.9996H313.9V42.2996H314C314.9 40.0996 317.3 38.5996 319.6 38.5996C319.9 38.5996 320.3 38.6996 320.7 38.7996V43.2996C320.3 43.1996 319.5 43.0996 319 43.0996C315.5 43.0996 314.2 45.5996 314.2 48.6996V56.5996H309.4V38.9996H309.3Z" fill="#6C6F75"/>
<path d="M334.4 54.2998C333.2 56.1998 331.2 56.9998 329 56.9998C323.7 56.9998 321.1 52.3998 321.1 47.5998C321.1 42.8998 323.7 38.4998 328.9 38.4998C331 38.4998 333 39.3998 334.1 41.0998H334.2V32.2998H339V56.5998H334.4V54.2998ZM330.2 42.0998C327 42.0998 326 44.7998 326 47.6998C326 50.4998 327.3 53.2998 330.2 53.2998C333.4 53.2998 334.3 50.4998 334.3 47.5998C334.3 44.7998 333.3 42.0998 330.2 42.0998Z" fill="#6C6F75"/>
<path d="M345 50.7996C345 52.8996 346.8 53.7996 348.7 53.7996C350.1 53.7996 351.9 53.2996 351.9 51.5996C351.9 50.0996 349.9 49.5996 346.4 48.8996C343.6 48.2996 340.8 47.2996 340.8 44.1996C340.8 39.6996 344.7 38.5996 348.4 38.5996C352.2 38.5996 355.8 39.8996 356.2 44.1996H351.6C351.5 42.2996 350 41.7996 348.3 41.7996C347.2 41.7996 345.6 41.9996 345.6 43.3996C345.6 45.0996 348.3 45.3996 351.1 45.9996C353.9 46.5996 356.7 47.6996 356.7 50.8996C356.7 55.4996 352.7 56.9996 348.7 56.9996C344.6 56.9996 340.6 55.4996 340.4 50.7996H345Z" fill="#6C6F75"/>
<path d="M365 41.8998C364.8 36.4998 367.9 32.2998 373.6 32.2998C378 32.2998 381.8 35.0998 381.8 39.6998C381.8 43.2998 379.9 45.1998 377.6 46.8998C375.3 48.5998 372.5 49.8998 370.7 52.3998H382V56.4998H364.5C364.5 50.9998 367.9 48.5998 372 45.8998C374.1 44.4998 377 42.9998 377 40.0998C377 37.8998 375.5 36.3998 373.4 36.3998C370.5 36.3998 369.6 39.3998 369.6 41.8998H365Z" fill="#6C6F75"/>
<path d="M390.9 32.2998C395.7 32.2998 399.7 35.2998 399.7 44.5998C399.7 54.0998 395.7 57.0998 390.9 57.0998C386.2 57.0998 382.2 54.0998 382.2 44.5998C382.2 35.2998 386.2 32.2998 390.9 32.2998ZM390.9 52.9998C394.8 52.9998 394.8 47.1998 394.8 44.4998C394.8 41.9998 394.8 36.1998 390.9 36.1998C387 36.1998 387 41.9998 387 44.4998C387 47.1998 387 52.9998 390.9 52.9998Z" fill="#6C6F75"/>
<path d="M400 41.8998C399.8 36.4998 402.9 32.2998 408.6 32.2998C413 32.2998 416.8 35.0998 416.8 39.6998C416.8 43.2998 414.9 45.1998 412.6 46.8998C410.3 48.5998 407.5 49.8998 405.7 52.3998H417V56.4998H399.5C399.5 50.9998 402.9 48.5998 407 45.8998C409.1 44.4998 412 42.9998 412 40.0998C412 37.8998 410.5 36.3998 408.4 36.3998C405.5 36.3998 404.6 39.3998 404.6 41.8998H400Z" fill="#6C6F75"/>
<path d="M426.9 50.9997H416.8V46.5997L427.1 32.6997H431.4V46.9997H434.6V50.9997H431.4V56.4997H426.8V50.9997H426.9ZM426.9 38.7997H426.8L420.6 47.0997H426.9V38.7997Z" fill="#6C6F75"/>
<path d="M28 57.5L64.1999 0C64.1999 0 52.0999 39.1 44.5 49.8C36.7999 60.4 28 57.5 28 57.5ZM25.9 54.5C34.5 44.7 50.4 6.9 50.4 6.9L8.69995 60.6C8.69995 60.6 17.2 64.4 25.9 54.5Z" fill="#6C6F75"/>
<path d="M45.3 51.4002C45.3 51.8002 45.3 52.2002 45.3 52.6002C45.3 59.8002 41.9 66.2002 36.7 70.4002C40 67.0002 42 62.4002 42 57.4002C42 56.6002 41.9 55.9002 41.9 55.1002C43 54.1002 44.1 52.9002 45.3 51.4002ZM5 57.4002C5 47.2002 13.3 38.9002 23.5 38.9002H23.6L29.7 31.1002C27.5 30.4002 25.2 30.0002 22.7 30.0002C10.1 29.9002 0 40.1002 0 52.6002C0 62.5002 6.4 71.0002 15.4 74.0002C9.2 71.0002 5 64.7002 5 57.4002Z" fill="#6C6F75"/>
<path d="M67 12.2H68.5V9.5H70.5V12.2H72.3V13.7H70.5V18.5C70.5 19.3 70.6 19.7 71.5 19.7C71.8 19.7 72.1 19.7 72.3 19.6V21.1C71.9 21.1 71.5 21.2 71 21.2C68.9 21.2 68.6 20.4 68.5 18.9V13.6H67V12.2Z" fill="#6C6F75"/>
<path d="M72.8 12.2H74.7V14C74.9 13 76.1 12 77.3 12C77.8 12 77.9 12 78 12.1V14C77.7 14 77.4 13.9 77.2 13.9C75.8 13.9 74.8 15 74.8 17V21.3H72.8V12.2Z" fill="#6C6F75"/>
<path d="M80.1 17.2C80.1 18.6 80.9 19.9 82.5 19.9C83.6 19.9 84.3 19.4 84.7 18.4H86.6C86.2 20.4 84.5 21.4 82.5 21.4C79.7 21.4 78.1 19.4 78.1 16.7C78.1 14.2 79.8 12 82.4 12C85.2 12 87 14.5 86.6 17.2H80.1ZM84.7 15.9C84.6 14.7 83.8 13.5 82.4 13.5C81 13.5 80.1 14.5 80 15.9H84.7Z" fill="#6C6F75"/>
<path d="M95.3 19.2C95.3 19.7 95.4 19.9 95.8 19.9C95.9 19.9 96.1 19.9 96.3 19.9V21.3C96 21.4 95.4 21.5 95.1 21.5C94.3 21.5 93.7 21.2 93.6 20.4C92.8 21.2 91.6 21.5 90.5 21.5C88.9 21.5 87.4 20.6 87.4 18.9C87.4 16.7 89.2 16.3 90.8 16.1C92.2 15.8 93.5 16 93.5 14.8C93.5 13.8 92.4 13.6 91.6 13.6C90.5 13.6 89.7 14.1 89.6 15H87.6C87.7 12.7 89.7 12 91.7 12C93.4 12 95.3 12.7 95.3 14.6V19.2ZM93.3 16.7C92.7 17.1 91.7 17.1 90.9 17.2C90 17.3 89.3 17.7 89.3 18.7C89.3 19.6 90.4 19.8 91.1 19.8C92 19.8 93.3 19.3 93.3 18.1V16.7Z" fill="#6C6F75"/>
<path d="M98.4 18.2999C98.5 19.3999 99.4 19.8999 100.4 19.8999C101.1 19.8999 102.4 19.6999 102.4 18.6999C102.3 17.6999 100.9 17.4999 99.5 17.1999C98 16.8999 96.6 16.3999 96.6 14.4999C96.6 12.4999 98.7 11.8999 100.3 11.8999C102.1 11.8999 103.8 12.6999 104 14.6999H101.9C101.7 13.7999 100.9 13.4999 100.1 13.4999C99.5 13.4999 98.5 13.5999 98.5 14.3999C98.5 15.3999 100 15.4999 101.4 15.7999C102.8 16.0999 104.3 16.5999 104.3 18.3999C104.3 20.4999 102.2 21.2999 100.3 21.2999C98 21.2999 96.4 20.2999 96.3 18.1999H98.4V18.2999Z" fill="#6C6F75"/>
<path d="M113.2 21.1998H111.3V19.9998C110.8 20.8998 109.7 21.4998 108.8 21.4998C106.5 21.4998 105.5 20.2998 105.5 17.9998V12.2998H107.5V17.7998C107.5 19.3998 108.1 19.8998 109.2 19.8998C110.8 19.8998 111.4 18.7998 111.4 17.4998V12.2998H113.4V21.1998H113.2Z" fill="#6C6F75"/>
<path d="M114.7 12.2H116.6V14C116.8 13 118 12 119.2 12C119.7 12 119.8 12 119.9 12.1V14C119.6 14 119.3 13.9 119.1 13.9C117.7 13.9 116.7 15 116.7 17V21.3H114.7V12.2Z" fill="#6C6F75"/>
<path d="M120.6 12.1997H122.8L125.1 18.8997L127.4 12.1997H129.5L126 21.5997C125.4 23.1997 124.9 24.6997 122.8 24.6997C122.3 24.6997 121.9 24.6997 121.4 24.5997V22.9997C121.7 23.0997 122 23.0997 122.3 23.0997C123.2 23.0997 123.4 22.5997 123.7 21.8997L123.9 21.1997L120.6 12.1997Z" fill="#6C6F75"/>
<path d="M129.8 12.2H131.3V9.5H133.3V12.2H135.1V13.7H133.3V18.5C133.3 19.3 133.4 19.7 134.3 19.7C134.6 19.7 134.9 19.7 135.1 19.6V21.1C134.7 21.1 134.3 21.2 133.8 21.2C131.7 21.2 131.4 20.4 131.3 18.9V13.6H129.8V12.2Z" fill="#6C6F75"/>
<path d="M135.4 16.7C135.4 14 137 12 139.9 12C142.8 12 144.4 14 144.4 16.7C144.4 19.5 142.8 21.4 139.9 21.4C137.1 21.4 135.4 19.5 135.4 16.7ZM142.5 16.7C142.5 15.2 141.7 13.5 140 13.5C138.2 13.5 137.5 15.1 137.5 16.7C137.5 18.3 138.3 19.9 140 19.9C141.7 19.9 142.5 18.3 142.5 16.7Z" fill="#6C6F75"/>
<path d="M154 21.1998H152.1V19.9998C151.6 20.9998 150.5 21.4998 149.3 21.4998C146.5 21.4998 145.1 19.3998 145.1 16.6998C145.1 13.4998 147 11.9998 149 11.9998C150.1 11.9998 151.4 12.3998 152 13.3998V8.7998H154V21.1998ZM149.6 19.8998C151.4 19.8998 152.1 18.2998 152.1 16.6998C152.1 14.6998 151.1 13.4998 149.6 13.4998C147.7 13.4998 147.1 15.0998 147.1 16.7998C147.1 18.2998 147.9 19.8998 149.6 19.8998Z" fill="#6C6F75"/>
<path d="M162.9 19.2C162.9 19.7 163 19.9 163.4 19.9C163.5 19.9 163.7 19.9 163.9 19.9V21.3C163.6 21.4 163 21.5 162.7 21.5C161.9 21.5 161.3 21.2 161.2 20.4C160.4 21.2 159.2 21.5 158.1 21.5C156.5 21.5 155 20.6 155 18.9C155 16.7 156.8 16.3 158.4 16.1C159.8 15.8 161.1 16 161.1 14.8C161.1 13.8 160 13.6 159.2 13.6C158.1 13.6 157.3 14.1 157.2 15H155.2C155.3 12.7 157.3 12 159.3 12C161 12 162.9 12.7 162.9 14.6V19.2ZM161 16.7C160.4 17.1 159.4 17.1 158.6 17.2C157.8 17.3 157 17.7 157 18.7C157 19.6 158.1 19.8 158.8 19.8C159.7 19.8 161 19.3 161 18.1V16.7Z" fill="#6C6F75"/>
<path d="M163 12.1997H165.2L167.5 18.8997L169.8 12.1997H171.9L168.4 21.5997C167.8 23.1997 167.3 24.6997 165.2 24.6997C164.7 24.6997 164.3 24.6997 163.8 24.5997V22.9997C164.1 23.0997 164.4 23.0997 164.7 23.0997C165.6 23.0997 165.8 22.5997 166.1 21.8997L166.3 21.1997L163 12.1997Z" fill="#6C6F75"/>
</g>
<defs>
<clipPath id="clip0_328_6697">
<rect width="434.6" height="74" fill="white"/>
</clipPath>
</defs>
</svg>
