<svg width="30" height="30" viewBox="0 0 30 30" fill="none" xmlns="http://www.w3.org/2000/svg">
<path d="M23.75 20.9375C23.2375 20.9375 22.8125 20.5125 22.8125 20V8.125C22.8125 7.2625 22.1125 6.5625 21.25 6.5625H14.375C13.8625 6.5625 13.4375 6.1375 13.4375 5.625C13.4375 5.1125 13.8625 4.6875 14.375 4.6875H21.25C23.15 4.6875 24.6875 6.225 24.6875 8.125V20C24.6875 20.5125 24.2625 20.9375 23.75 20.9375Z" fill="url(#paint0_linear_328_6675)"/>
<path d="M17.5 9.68766C17.2875 9.68766 17.075 9.61268 16.9 9.47518L13.15 6.35018C12.9375 6.17518 12.8125 5.91266 12.8125 5.62516C12.8125 5.33766 12.9375 5.08764 13.15 4.90014L16.9 1.77514C17.3 1.43764 17.8875 1.50018 18.225 1.90018C18.5625 2.30018 18.5 2.88768 18.1 3.22518L15.2125 5.62516L18.1 8.02514C18.5 8.36264 18.55 8.95013 18.225 9.35013C18.0375 9.57513 17.7625 9.68766 17.5 9.68766Z" fill="url(#paint1_linear_328_6675)"/>
<path d="M23.75 28.4375C21.1625 28.4375 19.0625 26.3375 19.0625 23.75C19.0625 21.1625 21.1625 19.0625 23.75 19.0625C26.3375 19.0625 28.4375 21.1625 28.4375 23.75C28.4375 26.3375 26.3375 28.4375 23.75 28.4375ZM23.75 20.9375C22.2 20.9375 20.9375 22.2 20.9375 23.75C20.9375 25.3 22.2 26.5625 23.75 26.5625C25.3 26.5625 26.5625 25.3 26.5625 23.75C26.5625 22.2 25.3 20.9375 23.75 20.9375Z" fill="url(#paint2_linear_328_6675)"/>
<path d="M15.625 25.3125H8.75C6.85 25.3125 5.3125 23.775 5.3125 21.875V10C5.3125 9.4875 5.7375 9.0625 6.25 9.0625C6.7625 9.0625 7.1875 9.4875 7.1875 10V21.875C7.1875 22.7375 7.8875 23.4375 8.75 23.4375H15.625C16.1375 23.4375 16.5625 23.8625 16.5625 24.375C16.5625 24.8875 16.1375 25.3125 15.625 25.3125Z" fill="url(#paint3_linear_328_6675)"/>
<path d="M12.4999 28.4374C12.2374 28.4374 11.9624 28.3248 11.7749 28.0998C11.4374 27.6998 11.4999 27.1123 11.8999 26.7748L14.7874 24.3749L11.8999 21.9749C11.4999 21.6374 11.4499 21.0499 11.7749 20.6499C12.1124 20.2499 12.6999 20.1998 13.0999 20.5248L16.8499 23.6498C17.0624 23.8248 17.1874 24.0874 17.1874 24.3749C17.1874 24.6624 17.0624 24.9124 16.8499 25.0999L13.0999 28.2249C12.9249 28.3624 12.7124 28.4374 12.4999 28.4374Z" fill="url(#paint4_linear_328_6675)"/>
<path d="M6.25 10.9375C3.6625 10.9375 1.5625 8.8375 1.5625 6.25C1.5625 3.6625 3.6625 1.5625 6.25 1.5625C8.8375 1.5625 10.9375 3.6625 10.9375 6.25C10.9375 8.8375 8.8375 10.9375 6.25 10.9375ZM6.25 3.4375C4.7 3.4375 3.4375 4.7 3.4375 6.25C3.4375 7.8 4.7 9.0625 6.25 9.0625C7.8 9.0625 9.0625 7.8 9.0625 6.25C9.0625 4.7 7.8 3.4375 6.25 3.4375Z" fill="url(#paint5_linear_328_6675)"/>
<defs>
<linearGradient id="paint0_linear_328_6675" x1="19.0625" y1="4.6875" x2="19.0625" y2="20.9375" gradientUnits="userSpaceOnUse">
<stop stop-color="#008D84"/>
<stop offset="1" stop-color="#32BCAD"/>
</linearGradient>
<linearGradient id="paint1_linear_328_6675" x1="15.628" y1="1.55664" x2="15.628" y2="9.68766" gradientUnits="userSpaceOnUse">
<stop stop-color="#008D84"/>
<stop offset="1" stop-color="#32BCAD"/>
</linearGradient>
<linearGradient id="paint2_linear_328_6675" x1="23.75" y1="19.0625" x2="23.75" y2="28.4375" gradientUnits="userSpaceOnUse">
<stop stop-color="#008D84"/>
<stop offset="1" stop-color="#32BCAD"/>
</linearGradient>
<linearGradient id="paint3_linear_328_6675" x1="10.9375" y1="9.0625" x2="10.9375" y2="25.3125" gradientUnits="userSpaceOnUse">
<stop stop-color="#008D84"/>
<stop offset="1" stop-color="#32BCAD"/>
</linearGradient>
<linearGradient id="paint4_linear_328_6675" x1="14.3719" y1="20.3115" x2="14.3719" y2="28.4374" gradientUnits="userSpaceOnUse">
<stop stop-color="#008D84"/>
<stop offset="1" stop-color="#32BCAD"/>
</linearGradient>
<linearGradient id="paint5_linear_328_6675" x1="6.25" y1="1.5625" x2="6.25" y2="10.9375" gradientUnits="userSpaceOnUse">
<stop stop-color="#008D84"/>
<stop offset="1" stop-color="#32BCAD"/>
</linearGradient>
</defs>
</svg>
